<svg width="284" height="171" viewBox="0 0 284 171" fill="none" xmlns="http://www.w3.org/2000/svg">
<path d="M5.376 48.376C7.168 48.4613 9.51467 48.5467 12.416 48.632C15.3173 48.7173 18.176 48.76 20.992 48.76C25.0027 48.76 28.8427 48.7173 32.512 48.632C36.1813 48.5467 38.784 48.504 40.32 48.504C50.6453 48.504 58.368 50.8507 63.488 55.544C68.608 60.2373 71.168 66.296 71.168 73.72C71.168 76.792 70.656 80.0347 69.632 83.448C68.608 86.776 66.816 89.8907 64.256 92.792C61.7813 95.608 58.368 97.912 54.016 99.704C49.664 101.496 44.16 102.392 37.504 102.392H25.216V99.832H36.224C42.2827 99.832 46.8907 98.68 50.048 96.376C53.2907 94.072 55.4667 91.0427 56.576 87.288C57.7707 83.5333 58.368 79.48 58.368 75.128C58.368 67.0213 56.7467 60.9627 53.504 56.952C50.3467 52.9413 44.8853 50.936 37.12 50.936C33.1947 50.936 30.6347 51.6613 29.44 53.112C28.2453 54.5627 27.648 57.5067 27.648 61.944V125.432C27.648 128.504 27.9467 130.808 28.544 132.344C29.2267 133.88 30.5067 134.904 32.384 135.416C34.2613 135.928 36.992 136.269 40.576 136.44V139C38.3573 138.829 35.5413 138.744 32.128 138.744C28.7147 138.659 25.2587 138.616 21.76 138.616C18.432 138.616 15.3173 138.659 12.416 138.744C9.51467 138.744 7.168 138.829 5.376 139V136.44C8.27733 136.269 10.4533 135.928 11.904 135.416C13.44 134.904 14.464 133.88 14.976 132.344C15.488 130.808 15.744 128.504 15.744 125.432V61.944C15.744 58.7867 15.488 56.4827 14.976 55.032C14.464 53.496 13.44 52.472 11.904 51.96C10.4533 51.3627 8.27733 51.0213 5.376 50.936V48.376Z" fill="white"/>
<path d="M77.688 50.688C78.584 50.7307 79.7573 50.7733 81.208 50.816C82.6587 50.8587 84.088 50.88 85.496 50.88C87.5013 50.88 89.4213 50.8587 91.256 50.816C93.0907 50.7733 94.392 50.752 95.16 50.752C98.616 50.752 101.475 51.2427 103.736 52.224C106.04 53.2053 107.747 54.5493 108.856 56.256C110.008 57.92 110.584 59.7973 110.584 61.888C110.584 63.168 110.328 64.5333 109.816 65.984C109.304 67.4347 108.408 68.8 107.128 70.08C105.891 71.36 104.184 72.4267 102.008 73.28C99.832 74.0907 97.08 74.496 93.752 74.496H87.608V73.216H93.112C96.1413 73.216 98.4453 72.7467 100.024 71.808C101.645 70.8267 102.733 69.5467 103.288 67.968C103.885 66.3467 104.184 64.5547 104.184 62.592C104.184 59.2213 103.373 56.6187 101.752 54.784C100.173 52.9067 97.4427 51.968 93.56 51.968C91.5973 51.968 90.3173 52.3307 89.72 53.056C89.1227 53.7813 88.824 55.2533 88.824 57.472V89.216C88.824 90.752 88.952 91.904 89.208 92.672C89.464 93.44 89.9547 93.952 90.68 94.208C91.448 94.464 92.5573 94.6347 94.008 94.72V96C93.0267 95.9147 91.7893 95.872 90.296 95.872C88.8453 95.8293 87.3733 95.808 85.88 95.808C84.216 95.808 82.6587 95.8293 81.208 95.872C79.7573 95.872 78.584 95.9147 77.688 96V94.72C79.1387 94.6347 80.2267 94.464 80.952 94.208C81.72 93.952 82.232 93.44 82.488 92.672C82.744 91.904 82.872 90.752 82.872 89.216V57.472C82.872 55.8933 82.744 54.7413 82.488 54.016C82.232 53.248 81.72 52.736 80.952 52.48C80.2267 52.1813 79.1387 52.0107 77.688 51.968V50.688ZM87.864 73.408C90.168 73.4933 91.9813 73.6 93.304 73.728C94.6267 73.8133 95.6933 73.8987 96.504 73.984C97.3573 74.0693 98.168 74.176 98.936 74.304C101.795 74.7733 103.843 75.648 105.08 76.928C106.36 78.1653 107.299 80.1067 107.896 82.752L109.496 89.28C109.923 91.1573 110.349 92.5227 110.776 93.376C111.245 94.1867 111.949 94.5707 112.888 94.528C113.613 94.4853 114.211 94.2507 114.68 93.824C115.192 93.3973 115.725 92.8213 116.28 92.096L117.24 92.8C116.344 94.1227 115.405 95.1467 114.424 95.872C113.485 96.5547 112.141 96.896 110.392 96.896C108.813 96.896 107.427 96.4267 106.232 95.488C105.037 94.5493 104.141 92.7147 103.544 89.984L102.136 83.584C101.752 81.7493 101.304 80.1707 100.792 78.848C100.323 77.4827 99.64 76.416 98.744 75.648C97.8907 74.88 96.6107 74.496 94.904 74.496H87.992L87.864 73.408ZM135.508 50.688V51.968C134.057 52.0107 132.948 52.1813 132.18 52.48C131.455 52.736 130.964 53.248 130.708 54.016C130.452 54.7413 130.324 55.8933 130.324 57.472V89.216C130.324 90.752 130.452 91.904 130.708 92.672C130.964 93.44 131.455 93.952 132.18 94.208C132.948 94.464 134.057 94.6347 135.508 94.72V96C134.527 95.9147 133.289 95.872 131.796 95.872C130.345 95.8293 128.873 95.808 127.38 95.808C125.716 95.808 124.159 95.8293 122.708 95.872C121.257 95.872 120.084 95.9147 119.188 96V94.72C120.639 94.6347 121.727 94.464 122.452 94.208C123.22 93.952 123.732 93.44 123.988 92.672C124.244 91.904 124.372 90.752 124.372 89.216V57.472C124.372 55.8933 124.244 54.7413 123.988 54.016C123.732 53.248 123.22 52.736 122.452 52.48C121.727 52.1813 120.639 52.0107 119.188 51.968V50.688C120.084 50.7307 121.257 50.7733 122.708 50.816C124.159 50.8587 125.716 50.88 127.38 50.88C128.873 50.88 130.345 50.8587 131.796 50.816C133.289 50.7733 134.527 50.7307 135.508 50.688ZM134.228 36.736C135.081 36.1813 135.849 35.9893 136.532 36.16C137.257 36.288 137.791 36.6293 138.132 37.184C138.473 37.7387 138.559 38.3573 138.388 39.04C138.217 39.68 137.684 40.2987 136.788 40.896C135.892 41.4507 134.847 41.9627 133.652 42.432C132.5 42.8587 131.135 43.392 129.556 44.032C128.02 44.6293 126.143 45.4827 123.924 46.592L123.476 45.76C125.439 44.2667 127.039 42.9653 128.276 41.856C129.556 40.704 130.644 39.7013 131.54 38.848C132.436 37.9947 133.332 37.2907 134.228 36.736ZM191.244 50.688V51.968C189.793 52.0107 188.684 52.1813 187.916 52.48C187.19 52.736 186.7 53.248 186.444 54.016C186.188 54.7413 186.06 55.8933 186.06 57.472V89.216C186.06 90.752 186.188 91.904 186.444 92.672C186.7 93.44 187.19 93.952 187.916 94.208C188.684 94.464 189.793 94.6347 191.244 94.72V96C190.262 95.9147 189.025 95.872 187.532 95.872C186.081 95.8293 184.609 95.808 183.116 95.808C181.452 95.808 179.894 95.8293 178.444 95.872C176.993 95.872 175.82 95.9147 174.924 96V94.72C176.374 94.6347 177.462 94.464 178.188 94.208C178.956 93.952 179.468 93.44 179.724 92.672C179.98 91.904 180.108 90.752 180.108 89.216V54.016L180.364 54.208L164.684 96.32H163.66L147.532 54.784V88.576C147.532 90.112 147.66 91.328 147.916 92.224C148.214 93.0773 148.769 93.696 149.58 94.08C150.433 94.4213 151.692 94.6347 153.356 94.72V96C152.588 95.9147 151.585 95.872 150.348 95.872C149.11 95.8293 147.937 95.808 146.828 95.808C145.761 95.808 144.673 95.8293 143.564 95.872C142.497 95.872 141.601 95.9147 140.876 96V94.72C142.326 94.6347 143.414 94.4213 144.14 94.08C144.908 93.696 145.42 93.0773 145.676 92.224C145.932 91.328 146.06 90.112 146.06 88.576V57.472C146.06 55.8933 145.932 54.7413 145.676 54.016C145.42 53.248 144.908 52.736 144.14 52.48C143.414 52.1813 142.326 52.0107 140.876 51.968V50.688C141.601 50.7307 142.497 50.7733 143.564 50.816C144.673 50.8587 145.761 50.88 146.828 50.88C147.766 50.88 148.726 50.8587 149.708 50.816C150.732 50.7733 151.585 50.7307 152.268 50.688L166.796 88.96L165.708 89.472L180.108 50.88C180.62 50.88 181.11 50.88 181.58 50.88C182.092 50.88 182.604 50.88 183.116 50.88C184.609 50.88 186.081 50.8587 187.532 50.816C189.025 50.7733 190.262 50.7307 191.244 50.688ZM217.182 49.792C221.235 49.792 224.776 50.7093 227.806 52.544C230.878 54.3787 233.246 57.024 234.91 60.48C236.616 63.8933 237.47 68.0533 237.47 72.96C237.47 77.7387 236.595 81.92 234.846 85.504C233.139 89.088 230.75 91.8827 227.678 93.888C224.606 95.8933 221.086 96.896 217.118 96.896C213.064 96.896 209.502 95.9787 206.43 94.144C203.4 92.3093 201.032 89.664 199.326 86.208C197.662 82.752 196.83 78.592 196.83 73.728C196.83 68.9493 197.704 64.768 199.454 61.184C201.203 57.6 203.592 54.8053 206.622 52.8C209.694 50.7947 213.214 49.792 217.182 49.792ZM216.926 50.944C214.152 50.944 211.742 51.904 209.694 53.824C207.646 55.744 206.046 58.3893 204.894 61.76C203.784 65.1307 203.23 69.0347 203.23 73.472C203.23 77.9947 203.848 81.9413 205.086 85.312C206.366 88.64 208.072 91.2213 210.206 93.056C212.382 94.848 214.771 95.744 217.374 95.744C220.147 95.744 222.558 94.784 224.606 92.864C226.654 90.944 228.232 88.2987 229.342 84.928C230.494 81.5147 231.069 77.6107 231.069 73.216C231.069 68.6507 230.43 64.704 229.15 61.376C227.912 58.048 226.227 55.488 224.094 53.696C221.96 51.8613 219.571 50.944 216.926 50.944ZM243.063 50.688C243.959 50.7307 245.132 50.7733 246.583 50.816C248.034 50.8587 249.463 50.88 250.871 50.88C252.876 50.88 254.796 50.8587 256.631 50.816C258.466 50.7733 259.767 50.752 260.535 50.752C263.991 50.752 266.85 51.2427 269.111 52.224C271.415 53.2053 273.122 54.5493 274.231 56.256C275.383 57.92 275.959 59.7973 275.959 61.888C275.959 63.168 275.703 64.5333 275.191 65.984C274.679 67.4347 273.783 68.8 272.503 70.08C271.266 71.36 269.559 72.4267 267.383 73.28C265.207 74.0907 262.455 74.496 259.127 74.496H252.983V73.216H258.487C261.516 73.216 263.82 72.7467 265.399 71.808C267.02 70.8267 268.108 69.5467 268.663 67.968C269.26 66.3467 269.559 64.5547 269.559 62.592C269.559 59.2213 268.748 56.6187 267.127 54.784C265.548 52.9067 262.818 51.968 258.935 51.968C256.972 51.968 255.692 52.3307 255.095 53.056C254.498 53.7813 254.199 55.2533 254.199 57.472V89.216C254.199 90.752 254.327 91.904 254.583 92.672C254.839 93.44 255.33 93.952 256.055 94.208C256.823 94.464 257.932 94.6347 259.383 94.72V96C258.402 95.9147 257.164 95.872 255.671 95.872C254.22 95.8293 252.748 95.808 251.255 95.808C249.591 95.808 248.034 95.8293 246.583 95.872C245.132 95.872 243.959 95.9147 243.063 96V94.72C244.514 94.6347 245.602 94.464 246.327 94.208C247.095 93.952 247.607 93.44 247.863 92.672C248.119 91.904 248.247 90.752 248.247 89.216V57.472C248.247 55.8933 248.119 54.7413 247.863 54.016C247.607 53.248 247.095 52.736 246.327 52.48C245.602 52.1813 244.514 52.0107 243.063 51.968V50.688ZM253.239 73.408C255.543 73.4933 257.356 73.6 258.679 73.728C260.002 73.8133 261.068 73.8987 261.879 73.984C262.732 74.0693 263.543 74.176 264.311 74.304C267.17 74.7733 269.218 75.648 270.455 76.928C271.735 78.1653 272.674 80.1067 273.271 82.752L274.871 89.28C275.298 91.1573 275.724 92.5227 276.151 93.376C276.62 94.1867 277.324 94.5707 278.263 94.528C278.988 94.4853 279.586 94.2507 280.055 93.824C280.567 93.3973 281.1 92.8213 281.655 92.096L282.615 92.8C281.719 94.1227 280.78 95.1467 279.799 95.872C278.86 96.5547 277.516 96.896 275.767 96.896C274.188 96.896 272.802 96.4267 271.607 95.488C270.412 94.5493 269.516 92.7147 268.919 89.984L267.511 83.584C267.127 81.7493 266.679 80.1707 266.167 78.848C265.698 77.4827 265.015 76.416 264.119 75.648C263.266 74.88 261.986 74.496 260.279 74.496H253.367L253.239 73.408Z" fill="white"/>
<path opacity="0.28" d="M90.3954 108.28L90.6834 104.888H90.5554L89.5314 108.056L85.0194 117.784H84.2194L79.4834 108.056L78.4914 104.888H78.3634L78.8114 108.28V123H76.5074V100.6H78.5234L83.9314 111.608L84.7314 114.232H84.7954L85.5634 111.576L90.6834 100.6H92.7954V123H90.3954V108.28ZM105.81 111.8C105.81 108.003 106.418 105.123 107.634 103.16C108.85 101.197 110.706 100.216 113.202 100.216C114.546 100.216 115.688 100.493 116.626 101.048C117.565 101.581 118.322 102.349 118.898 103.352C119.496 104.355 119.933 105.571 120.21 107C120.488 108.429 120.626 110.029 120.626 111.8C120.626 115.597 120.008 118.477 118.77 120.44C117.554 122.403 115.698 123.384 113.202 123.384C111.88 123.384 110.749 123.117 109.81 122.584C108.872 122.029 108.104 121.251 107.506 120.248C106.909 119.245 106.472 118.029 106.194 116.6C105.938 115.171 105.81 113.571 105.81 111.8ZM108.338 111.8C108.338 113.059 108.424 114.253 108.594 115.384C108.786 116.515 109.074 117.507 109.458 118.36C109.842 119.213 110.344 119.896 110.962 120.408C111.581 120.92 112.328 121.176 113.202 121.176C114.802 121.176 116.018 120.408 116.85 118.872C117.682 117.336 118.098 114.979 118.098 111.8C118.098 110.563 118.002 109.379 117.81 108.248C117.64 107.117 117.362 106.125 116.978 105.272C116.594 104.397 116.093 103.704 115.474 103.192C114.856 102.68 114.098 102.424 113.202 102.424C111.624 102.424 110.418 103.192 109.586 104.728C108.754 106.264 108.338 108.621 108.338 111.8ZM137.823 115.928L138.399 119.352H138.463L139.103 115.864L143.263 100.6H145.727L138.943 123.352H137.663L130.783 100.6H133.439L137.823 115.928ZM157.307 100.6H167.259V102.808H159.707V110.392H166.651V112.6H159.707V120.792H167.419V123H157.307V100.6ZM191.41 123H180.626V100.6H183.026V120.792H191.41V123ZM212.303 116.728H205.967L204.175 123H201.807L208.559 100.248H209.871L216.623 123H214.127L212.303 116.728ZM206.607 114.584H211.727L209.775 107.672L209.167 104.312H209.103L208.495 107.736L206.607 114.584ZM228.42 100.824C229.124 100.653 229.892 100.536 230.724 100.472C231.577 100.387 232.356 100.344 233.06 100.344C233.892 100.344 234.681 100.451 235.428 100.664C236.175 100.856 236.825 101.197 237.38 101.688C237.935 102.157 238.372 102.787 238.692 103.576C239.033 104.344 239.204 105.315 239.204 106.488C239.204 108.259 238.831 109.677 238.084 110.744C237.359 111.811 236.388 112.525 235.172 112.888L236.388 114.072L240.804 123H238.02L233.22 113.24L230.82 112.76V123H228.42V100.824ZM230.82 111.16H232.74C233.956 111.16 234.916 110.787 235.62 110.04C236.324 109.293 236.676 108.152 236.676 106.616C236.676 105.443 236.377 104.472 235.78 103.704C235.204 102.936 234.34 102.552 233.188 102.552C232.761 102.552 232.313 102.573 231.844 102.616C231.396 102.637 231.055 102.68 230.82 102.744V111.16ZM253.875 100.6H256.275V123H253.875V100.6ZM279.072 116.728H272.736L270.944 123H268.576L275.328 100.248H276.64L283.392 123H280.896L279.072 116.728ZM273.376 114.584H278.496L276.544 107.672L275.936 104.312H275.872L275.264 107.736L273.376 114.584Z" fill="white"/>
</svg>
