<svg width="62" height="86" viewBox="0 0 62 86" fill="none" xmlns="http://www.w3.org/2000/svg">
<path d="M35.24 0.0799975C42.2 0.0799975 48 1.76 52.64 5.12C58.88 9.6 62 16.6 62 26.12C62 33 60.08 38.88 56.24 43.76C52.08 48.96 46.28 51.56 38.84 51.56C34.92 51.56 31.36 50.64 28.16 48.8C24.96 46.88 23.08 43.64 22.52 39.08L23.6 38.72C24.48 42.16 26.52 44.56 29.72 45.92C31.88 46.88 33.8 47.36 35.48 47.36C42.04 47.36 46.8 44.8 49.76 39.68C51.92 35.92 53 31.44 53 26.24C53 17.92 50.68 11.92 46.04 8.24C42.52 5.36 38.04 3.92 32.6 3.92C31.32 3.92 30.2 4 29.24 4.16C28.36 4.23999 24.36 4.88 17.24 6.08V77.24C17.32 79.4 18.12 81.2 19.64 82.64C21.16 84.08 22.92 84.8 24.92 84.8H26.48V86H0.2V84.8H1.76C3.76 84.8 5.52 84.08 7.04 82.64C8.56 81.2 9.36 79.4 9.44 77.24V12.32C9.44 10.24 8.84 8.63999 7.64 7.51999C6.44 6.32 4.88 5.72 2.96 5.72C2.56 5.72 2.16 5.76 1.76 5.83999L0.320001 5.95999L0.0800005 4.75999C4.24 4.35999 9.8 3.6 16.76 2.48C23.8 1.28 28.16 0.599996 29.84 0.439993C31.52 0.199996 33.32 0.0799975 35.24 0.0799975Z" fill="white"/>
</svg>
